<svg xmlns="http://www.w3.org/2000/svg" width="1600" height="476" viewBox="0 0 1600 476" role="img" aria-label="hashtable flamegraph">
<style>text{font-family:-apple-system,BlinkMacSystemFont,'Segoe UI',Helvetica,Arial,sans-serif;}.title{font-size:24px;font-weight:700;fill:#222;}.subtitle{font-size:13px;fill:#5d5d5d;}.box-label{font-size:12px;fill:#222;pointer-events:none;}.box{stroke:#ffffff;stroke-width:1;}</style>
<rect x="0" y="0" width="1600" height="476" fill="#fffaf5"/>
<text class="title" x="24" y="34">hashtable flamegraph</text>
<text class="subtitle" x="24" y="56">pprof static flamegraph • total samples 440.0ms • widest path is the hottest path</text>
<g><title>program&#10;440.0ms (100.0%)</title>
<rect class="box" x="24.00" y="424.00" width="1552.00" height="20" rx="3" ry="3" fill="hsl(38,82%,62%)"/>
<text class="box-label" x="28.00" y="438.00">program</text>
</g>
<g><title>runtime.main&#10;410.0ms (93.2%)</title>
<rect class="box" x="24.00" y="402.00" width="1446.18" height="20" rx="3" ry="3" fill="hsl(24,84%,59%)"/>
<text class="box-label" x="28.00" y="416.00">runtime.main</text>
</g>
<g><title>main.main&#10;410.0ms (93.2%)</title>
<rect class="box" x="24.00" y="380.00" width="1446.18" height="20" rx="3" ry="3" fill="hsl(12,78%,69%)"/>
<text class="box-label" x="28.00" y="394.00">main.main</text>
</g>
<g><title>main.writeCPU&#10;410.0ms (93.2%)</title>
<rect class="box" x="24.00" y="358.00" width="1446.18" height="20" rx="3" ry="3" fill="hsl(19,79%,72%)"/>
<text class="box-label" x="28.00" y="372.00">main.writeCPU</text>
</g>
<g><title>main.prepareHashtable.func1&#10;410.0ms (93.2%)</title>
<rect class="box" x="24.00" y="336.00" width="1446.18" height="20" rx="3" ry="3" fill="hsl(53,86%,72%)"/>
<text class="box-label" x="28.00" y="350.00">main.prepareHashtable.func1</text>
</g>
<g><title>algo/hashtable.(*DiskHashTable).Set&#10;70.0ms (15.9%)</title>
<rect class="box" x="24.00" y="314.00" width="246.91" height="20" rx="3" ry="3" fill="hsl(17,72%,61%)"/>
<text class="box-label" x="28.00" y="328.00">hashtable.(*DiskHashTable).Set</text>
</g>
<g><title>algo/hashtable.(*bucketState).ensureLoaded&#10;10.0ms (2.3%)</title>
<rect class="box" x="24.00" y="292.00" width="35.27" height="20" rx="3" ry="3" fill="hsl(25,84%,58%)"/>
</g>
<g><title>algo/hashtable.loadBucketFile&#10;10.0ms (2.3%)</title>
<rect class="box" x="24.00" y="270.00" width="35.27" height="20" rx="3" ry="3" fill="hsl(11,73%,58%)"/>
</g>
<g><title>os.ReadFile&#10;10.0ms (2.3%)</title>
<rect class="box" x="24.00" y="248.00" width="35.27" height="20" rx="3" ry="3" fill="hsl(32,73%,72%)"/>
</g>
<g><title>os.Open&#10;10.0ms (2.3%)</title>
<rect class="box" x="24.00" y="226.00" width="35.27" height="20" rx="3" ry="3" fill="hsl(19,85%,71%)"/>
</g>
<g><title>os.OpenFile&#10;10.0ms (2.3%)</title>
<rect class="box" x="24.00" y="204.00" width="35.27" height="20" rx="3" ry="3" fill="hsl(22,75%,63%)"/>
</g>
<g><title>os.openFileNolog&#10;10.0ms (2.3%)</title>
<rect class="box" x="24.00" y="182.00" width="35.27" height="20" rx="3" ry="3" fill="hsl(46,83%,64%)"/>
</g>
<g><title>os.ignoringEINTR&#10;10.0ms (2.3%)</title>
<rect class="box" x="24.00" y="160.00" width="35.27" height="20" rx="3" ry="3" fill="hsl(11,87%,68%)"/>
</g>
<g><title>os.openFileNolog.func1&#10;10.0ms (2.3%)</title>
<rect class="box" x="24.00" y="138.00" width="35.27" height="20" rx="3" ry="3" fill="hsl(11,80%,69%)"/>
</g>
<g><title>os.open&#10;10.0ms (2.3%)</title>
<rect class="box" x="24.00" y="116.00" width="35.27" height="20" rx="3" ry="3" fill="hsl(26,77%,61%)"/>
</g>
<g><title>syscall.Open&#10;10.0ms (2.3%)</title>
<rect class="box" x="24.00" y="94.00" width="35.27" height="20" rx="3" ry="3" fill="hsl(48,76%,61%)"/>
</g>
<g><title>syscall.syscall&#10;10.0ms (2.3%)</title>
<rect class="box" x="24.00" y="72.00" width="35.27" height="20" rx="3" ry="3" fill="hsl(24,76%,70%)"/>
</g>
<g><title>algo/hashtable.compactBucketIfNeeded&#10;50.0ms (11.4%)</title>
<rect class="box" x="59.27" y="292.00" width="176.36" height="20" rx="3" ry="3" fill="hsl(42,87%,68%)"/>
<text class="box-label" x="63.27" y="306.00">compactBucketIfNeeded</text>
</g>
<g><title>algo/hashtable.(*bucketMeta).closeAppendFile&#10;30.0ms (6.8%)</title>
<rect class="box" x="59.27" y="270.00" width="105.82" height="20" rx="3" ry="3" fill="hsl(52,73%,66%)"/>
<text class="box-label" x="63.27" y="284.00">closeAppendFi…</text>
</g>
<g><title>os.(*File).Close&#10;20.0ms (4.5%)</title>
<rect class="box" x="59.27" y="248.00" width="70.55" height="20" rx="3" ry="3" fill="hsl(50,75%,64%)"/>
<text class="box-label" x="63.27" y="262.00">Close</text>
</g>
<g><title>os.(*file).close&#10;20.0ms (4.5%)</title>
<rect class="box" x="59.27" y="226.00" width="70.55" height="20" rx="3" ry="3" fill="hsl(43,83%,59%)"/>
<text class="box-label" x="63.27" y="240.00">close</text>
</g>
<g><title>internal/poll.(*FD).Close&#10;20.0ms (4.5%)</title>
<rect class="box" x="59.27" y="204.00" width="70.55" height="20" rx="3" ry="3" fill="hsl(57,76%,61%)"/>
<text class="box-label" x="63.27" y="218.00">Close</text>
</g>
<g><title>internal/poll.(*FD).decref&#10;20.0ms (4.5%)</title>
<rect class="box" x="59.27" y="182.00" width="70.55" height="20" rx="3" ry="3" fill="hsl(45,82%,69%)"/>
<text class="box-label" x="63.27" y="196.00">decref</text>
</g>
<g><title>internal/poll.(*FD).destroy&#10;20.0ms (4.5%)</title>
<rect class="box" x="59.27" y="160.00" width="70.55" height="20" rx="3" ry="3" fill="hsl(13,86%,62%)"/>
<text class="box-label" x="63.27" y="174.00">destroy</text>
</g>
<g><title>internal/poll.(*SysFile).destroy&#10;20.0ms (4.5%)</title>
<rect class="box" x="59.27" y="138.00" width="70.55" height="20" rx="3" ry="3" fill="hsl(47,81%,73%)"/>
<text class="box-label" x="63.27" y="152.00">destroy</text>
</g>
<g><title>syscall.Close&#10;20.0ms (4.5%)</title>
<rect class="box" x="59.27" y="116.00" width="70.55" height="20" rx="3" ry="3" fill="hsl(28,74%,67%)"/>
<text class="box-label" x="63.27" y="130.00">Close</text>
</g>
<g><title>syscall.syscall&#10;20.0ms (4.5%)</title>
<rect class="box" x="59.27" y="94.00" width="70.55" height="20" rx="3" ry="3" fill="hsl(24,76%,70%)"/>
<text class="box-label" x="63.27" y="108.00">syscall</text>
</g>
<g><title>algo/hashtable.(*bucketMeta).flushAppendBuffer&#10;10.0ms (2.3%)</title>
<rect class="box" x="129.82" y="248.00" width="35.27" height="20" rx="3" ry="3" fill="hsl(29,77%,61%)"/>
</g>
<g><title>os.(*File).Write&#10;10.0ms (2.3%)</title>
<rect class="box" x="129.82" y="226.00" width="35.27" height="20" rx="3" ry="3" fill="hsl(55,74%,72%)"/>
</g>
<g><title>os.(*File).write&#10;10.0ms (2.3%)</title>
<rect class="box" x="129.82" y="204.00" width="35.27" height="20" rx="3" ry="3" fill="hsl(24,80%,65%)"/>
</g>
<g><title>internal/poll.(*FD).Write&#10;10.0ms (2.3%)</title>
<rect class="box" x="129.82" y="182.00" width="35.27" height="20" rx="3" ry="3" fill="hsl(46,89%,62%)"/>
</g>
<g><title>internal/poll.ignoringEINTRIO&#10;10.0ms (2.3%)</title>
<rect class="box" x="129.82" y="160.00" width="35.27" height="20" rx="3" ry="3" fill="hsl(54,88%,65%)"/>
</g>
<g><title>syscall.Write&#10;10.0ms (2.3%)</title>
<rect class="box" x="129.82" y="138.00" width="35.27" height="20" rx="3" ry="3" fill="hsl(23,82%,60%)"/>
</g>
<g><title>syscall.write&#10;10.0ms (2.3%)</title>
<rect class="box" x="129.82" y="116.00" width="35.27" height="20" rx="3" ry="3" fill="hsl(50,84%,63%)"/>
</g>
<g><title>syscall.syscall&#10;10.0ms (2.3%)</title>
<rect class="box" x="129.82" y="94.00" width="35.27" height="20" rx="3" ry="3" fill="hsl(24,76%,70%)"/>
</g>
<g><title>os.WriteFile&#10;20.0ms (4.5%)</title>
<rect class="box" x="165.09" y="270.00" width="70.55" height="20" rx="3" ry="3" fill="hsl(55,85%,59%)"/>
<text class="box-label" x="169.09" y="284.00">WriteFi…</text>
</g>
<g><title>os.OpenFile&#10;10.0ms (2.3%)</title>
<rect class="box" x="165.09" y="248.00" width="35.27" height="20" rx="3" ry="3" fill="hsl(22,75%,63%)"/>
</g>
<g><title>os.openFileNolog&#10;10.0ms (2.3%)</title>
<rect class="box" x="165.09" y="226.00" width="35.27" height="20" rx="3" ry="3" fill="hsl(46,83%,64%)"/>
</g>
<g><title>os.ignoringEINTR&#10;10.0ms (2.3%)</title>
<rect class="box" x="165.09" y="204.00" width="35.27" height="20" rx="3" ry="3" fill="hsl(11,87%,68%)"/>
</g>
<g><title>os.openFileNolog.func1&#10;10.0ms (2.3%)</title>
<rect class="box" x="165.09" y="182.00" width="35.27" height="20" rx="3" ry="3" fill="hsl(11,80%,69%)"/>
</g>
<g><title>os.open&#10;10.0ms (2.3%)</title>
<rect class="box" x="165.09" y="160.00" width="35.27" height="20" rx="3" ry="3" fill="hsl(26,77%,61%)"/>
</g>
<g><title>syscall.Open&#10;10.0ms (2.3%)</title>
<rect class="box" x="165.09" y="138.00" width="35.27" height="20" rx="3" ry="3" fill="hsl(48,76%,61%)"/>
</g>
<g><title>syscall.syscall&#10;10.0ms (2.3%)</title>
<rect class="box" x="165.09" y="116.00" width="35.27" height="20" rx="3" ry="3" fill="hsl(24,76%,70%)"/>
</g>
<g><title>os.(*File).Write&#10;10.0ms (2.3%)</title>
<rect class="box" x="200.36" y="248.00" width="35.27" height="20" rx="3" ry="3" fill="hsl(55,74%,72%)"/>
</g>
<g><title>os.(*File).write&#10;10.0ms (2.3%)</title>
<rect class="box" x="200.36" y="226.00" width="35.27" height="20" rx="3" ry="3" fill="hsl(24,80%,65%)"/>
</g>
<g><title>internal/poll.(*FD).Write&#10;10.0ms (2.3%)</title>
<rect class="box" x="200.36" y="204.00" width="35.27" height="20" rx="3" ry="3" fill="hsl(46,89%,62%)"/>
</g>
<g><title>internal/poll.ignoringEINTRIO&#10;10.0ms (2.3%)</title>
<rect class="box" x="200.36" y="182.00" width="35.27" height="20" rx="3" ry="3" fill="hsl(54,88%,65%)"/>
</g>
<g><title>syscall.Write&#10;10.0ms (2.3%)</title>
<rect class="box" x="200.36" y="160.00" width="35.27" height="20" rx="3" ry="3" fill="hsl(23,82%,60%)"/>
</g>
<g><title>syscall.write&#10;10.0ms (2.3%)</title>
<rect class="box" x="200.36" y="138.00" width="35.27" height="20" rx="3" ry="3" fill="hsl(50,84%,63%)"/>
</g>
<g><title>syscall.syscall&#10;10.0ms (2.3%)</title>
<rect class="box" x="200.36" y="116.00" width="35.27" height="20" rx="3" ry="3" fill="hsl(24,76%,70%)"/>
</g>
<g><title>algo/hashtable.(*bucketMeta).appendRecord&#10;10.0ms (2.3%)</title>
<rect class="box" x="235.64" y="292.00" width="35.27" height="20" rx="3" ry="3" fill="hsl(20,77%,71%)"/>
</g>
<g><title>algo/hashtable.writeRecord&#10;10.0ms (2.3%)</title>
<rect class="box" x="235.64" y="270.00" width="35.27" height="20" rx="3" ry="3" fill="hsl(22,78%,73%)"/>
</g>
<g><title>bytes.(*Buffer).Write&#10;10.0ms (2.3%)</title>
<rect class="box" x="235.64" y="248.00" width="35.27" height="20" rx="3" ry="3" fill="hsl(8,88%,70%)"/>
</g>
<g><title>algo/hashtable.(*DiskHashTable).Flush&#10;320.0ms (72.7%)</title>
<rect class="box" x="270.91" y="314.00" width="1128.73" height="20" rx="3" ry="3" fill="hsl(38,77%,69%)"/>
<text class="box-label" x="274.91" y="328.00">hashtable.(*DiskHashTable).Flush</text>
</g>
<g><title>algo/hashtable.(*bucketMeta).flushAppendBuffer&#10;320.0ms (72.7%)</title>
<rect class="box" x="270.91" y="292.00" width="1128.73" height="20" rx="3" ry="3" fill="hsl(29,77%,61%)"/>
<text class="box-label" x="274.91" y="306.00">hashtable.(*bucketMeta).flushAppendBuffer</text>
</g>
<g><title>algo/hashtable.(*bucketMeta).appendHandle&#10;190.0ms (43.2%)</title>
<rect class="box" x="270.91" y="270.00" width="670.18" height="20" rx="3" ry="3" fill="hsl(10,79%,69%)"/>
<text class="box-label" x="274.91" y="284.00">hashtable.(*bucketMeta).appendHandle</text>
</g>
<g><title>os.OpenFile&#10;190.0ms (43.2%)</title>
<rect class="box" x="270.91" y="248.00" width="670.18" height="20" rx="3" ry="3" fill="hsl(22,75%,63%)"/>
<text class="box-label" x="274.91" y="262.00">os.OpenFile</text>
</g>
<g><title>os.openFileNolog&#10;190.0ms (43.2%)</title>
<rect class="box" x="270.91" y="226.00" width="670.18" height="20" rx="3" ry="3" fill="hsl(46,83%,64%)"/>
<text class="box-label" x="274.91" y="240.00">os.openFileNolog</text>
</g>
<g><title>os.ignoringEINTR&#10;190.0ms (43.2%)</title>
<rect class="box" x="270.91" y="204.00" width="670.18" height="20" rx="3" ry="3" fill="hsl(11,87%,68%)"/>
<text class="box-label" x="274.91" y="218.00">os.ignoringEINTR</text>
</g>
<g><title>os.openFileNolog.func1&#10;190.0ms (43.2%)</title>
<rect class="box" x="270.91" y="182.00" width="670.18" height="20" rx="3" ry="3" fill="hsl(11,80%,69%)"/>
<text class="box-label" x="274.91" y="196.00">os.openFileNolog.func1</text>
</g>
<g><title>os.open&#10;190.0ms (43.2%)</title>
<rect class="box" x="270.91" y="160.00" width="670.18" height="20" rx="3" ry="3" fill="hsl(26,77%,61%)"/>
<text class="box-label" x="274.91" y="174.00">os.open</text>
</g>
<g><title>syscall.Open&#10;190.0ms (43.2%)</title>
<rect class="box" x="270.91" y="138.00" width="670.18" height="20" rx="3" ry="3" fill="hsl(48,76%,61%)"/>
<text class="box-label" x="274.91" y="152.00">syscall.Open</text>
</g>
<g><title>syscall.syscall&#10;190.0ms (43.2%)</title>
<rect class="box" x="270.91" y="116.00" width="670.18" height="20" rx="3" ry="3" fill="hsl(24,76%,70%)"/>
<text class="box-label" x="274.91" y="130.00">syscall.syscall</text>
</g>
<g><title>os.(*File).Write&#10;130.0ms (29.5%)</title>
<rect class="box" x="941.09" y="270.00" width="458.55" height="20" rx="3" ry="3" fill="hsl(55,74%,72%)"/>
<text class="box-label" x="945.09" y="284.00">os.(*File).Write</text>
</g>
<g><title>os.(*File).write&#10;130.0ms (29.5%)</title>
<rect class="box" x="941.09" y="248.00" width="458.55" height="20" rx="3" ry="3" fill="hsl(24,80%,65%)"/>
<text class="box-label" x="945.09" y="262.00">os.(*File).write</text>
</g>
<g><title>internal/poll.(*FD).Write&#10;130.0ms (29.5%)</title>
<rect class="box" x="941.09" y="226.00" width="458.55" height="20" rx="3" ry="3" fill="hsl(46,89%,62%)"/>
<text class="box-label" x="945.09" y="240.00">poll.(*FD).Write</text>
</g>
<g><title>internal/poll.ignoringEINTRIO&#10;130.0ms (29.5%)</title>
<rect class="box" x="941.09" y="204.00" width="458.55" height="20" rx="3" ry="3" fill="hsl(54,88%,65%)"/>
<text class="box-label" x="945.09" y="218.00">poll.ignoringEINTRIO</text>
</g>
<g><title>syscall.Write&#10;130.0ms (29.5%)</title>
<rect class="box" x="941.09" y="182.00" width="458.55" height="20" rx="3" ry="3" fill="hsl(23,82%,60%)"/>
<text class="box-label" x="945.09" y="196.00">syscall.Write</text>
</g>
<g><title>syscall.write&#10;130.0ms (29.5%)</title>
<rect class="box" x="941.09" y="160.00" width="458.55" height="20" rx="3" ry="3" fill="hsl(50,84%,63%)"/>
<text class="box-label" x="945.09" y="174.00">syscall.write</text>
</g>
<g><title>syscall.syscall&#10;130.0ms (29.5%)</title>
<rect class="box" x="941.09" y="138.00" width="458.55" height="20" rx="3" ry="3" fill="hsl(24,76%,70%)"/>
<text class="box-label" x="945.09" y="152.00">syscall.syscall</text>
</g>
<g><title>algo/hashtable.(*DiskHashTable).Get&#10;10.0ms (2.3%)</title>
<rect class="box" x="1399.64" y="314.00" width="35.27" height="20" rx="3" ry="3" fill="hsl(43,73%,71%)"/>
<text class="box-label" x="1403.64" y="328.00">Get</text>
</g>
<g><title>runtime.mapaccess2_faststr&#10;10.0ms (2.3%)</title>
<rect class="box" x="1399.64" y="292.00" width="35.27" height="20" rx="3" ry="3" fill="hsl(18,87%,72%)"/>
</g>
<g><title>algo/hashtable.(*DiskHashTable).Delete&#10;10.0ms (2.3%)</title>
<rect class="box" x="1434.91" y="314.00" width="35.27" height="20" rx="3" ry="3" fill="hsl(49,73%,62%)"/>
</g>
<g><title>runtime.mapdelete_faststr&#10;10.0ms (2.3%)</title>
<rect class="box" x="1434.91" y="292.00" width="35.27" height="20" rx="3" ry="3" fill="hsl(36,73%,61%)"/>
</g>
<g><title>internal/runtime/maps.(*Map).Delete&#10;10.0ms (2.3%)</title>
<rect class="box" x="1434.91" y="270.00" width="35.27" height="20" rx="3" ry="3" fill="hsl(12,80%,73%)"/>
</g>
<g><title>internal/runtime/maps.(*table).Delete&#10;10.0ms (2.3%)</title>
<rect class="box" x="1434.91" y="248.00" width="35.27" height="20" rx="3" ry="3" fill="hsl(29,83%,59%)"/>
</g>
<g><title>runtime.systemstack&#10;30.0ms (6.8%)</title>
<rect class="box" x="1470.18" y="402.00" width="105.82" height="20" rx="3" ry="3" fill="hsl(18,81%,59%)"/>
<text class="box-label" x="1474.18" y="416.00">systemstack</text>
</g>
<g><title>runtime.(*mheap).alloc.func1&#10;20.0ms (4.5%)</title>
<rect class="box" x="1470.18" y="380.00" width="70.55" height="20" rx="3" ry="3" fill="hsl(28,82%,58%)"/>
<text class="box-label" x="1474.18" y="394.00">func1</text>
</g>
<g><title>runtime.(*mheap).allocSpan&#10;20.0ms (4.5%)</title>
<rect class="box" x="1470.18" y="358.00" width="70.55" height="20" rx="3" ry="3" fill="hsl(32,82%,60%)"/>
<text class="box-label" x="1474.18" y="372.00">allocSp…</text>
</g>
<g><title>runtime.sysUsed&#10;20.0ms (4.5%)</title>
<rect class="box" x="1470.18" y="336.00" width="70.55" height="20" rx="3" ry="3" fill="hsl(36,81%,71%)"/>
<text class="box-label" x="1474.18" y="350.00">sysUsed</text>
</g>
<g><title>runtime.sysUsedOS&#10;20.0ms (4.5%)</title>
<rect class="box" x="1470.18" y="314.00" width="70.55" height="20" rx="3" ry="3" fill="hsl(11,72%,71%)"/>
<text class="box-label" x="1474.18" y="328.00">sysUsed…</text>
</g>
<g><title>runtime.madvise&#10;20.0ms (4.5%)</title>
<rect class="box" x="1470.18" y="292.00" width="70.55" height="20" rx="3" ry="3" fill="hsl(45,74%,68%)"/>
<text class="box-label" x="1474.18" y="306.00">madvise</text>
</g>
<g><title>runtime.gcMarkDone.forEachP.func5&#10;10.0ms (2.3%)</title>
<rect class="box" x="1540.73" y="380.00" width="35.27" height="20" rx="3" ry="3" fill="hsl(59,84%,67%)"/>
</g>
<g><title>runtime.forEachPInternal&#10;10.0ms (2.3%)</title>
<rect class="box" x="1540.73" y="358.00" width="35.27" height="20" rx="3" ry="3" fill="hsl(9,75%,59%)"/>
</g>
<g><title>runtime.preemptall&#10;10.0ms (2.3%)</title>
<rect class="box" x="1540.73" y="336.00" width="35.27" height="20" rx="3" ry="3" fill="hsl(9,88%,72%)"/>
</g>
<g><title>runtime.preemptone&#10;10.0ms (2.3%)</title>
<rect class="box" x="1540.73" y="314.00" width="35.27" height="20" rx="3" ry="3" fill="hsl(19,88%,62%)"/>
</g>
<g><title>runtime.preemptM&#10;10.0ms (2.3%)</title>
<rect class="box" x="1540.73" y="292.00" width="35.27" height="20" rx="3" ry="3" fill="hsl(59,88%,68%)"/>
</g>
<g><title>runtime.signalM&#10;10.0ms (2.3%)</title>
<rect class="box" x="1540.73" y="270.00" width="35.27" height="20" rx="3" ry="3" fill="hsl(55,86%,65%)"/>
</g>
<g><title>runtime.pthread_kill&#10;10.0ms (2.3%)</title>
<rect class="box" x="1540.73" y="248.00" width="35.27" height="20" rx="3" ry="3" fill="hsl(42,85%,67%)"/>
</g>
<text class="subtitle" x="24" y="466">Generated from go tool pprof flamegraph data</text>
</svg>