<svg xmlns="http://www.w3.org/2000/svg" width="1600" height="476" viewBox="0 0 1600 476" role="img" aria-label="perfecthash flamegraph">
<style>text{font-family:-apple-system,BlinkMacSystemFont,'Segoe UI',Helvetica,Arial,sans-serif;}.title{font-size:24px;font-weight:700;fill:#222;}.subtitle{font-size:13px;fill:#5d5d5d;}.box-label{font-size:12px;fill:#222;pointer-events:none;}.box{stroke:#ffffff;stroke-width:1;}</style>
<rect x="0" y="0" width="1600" height="476" fill="#fffaf5"/>
<text class="title" x="24" y="34">perfecthash flamegraph</text>
<text class="subtitle" x="24" y="56">pprof static flamegraph • total samples 1.49s • widest path is the hottest path</text>
<g><title>program&#10;1.49s (100.0%)</title>
<rect class="box" x="24.00" y="424.00" width="1552.00" height="20" rx="3" ry="3" fill="hsl(38,82%,62%)"/>
<text class="box-label" x="28.00" y="438.00">program</text>
</g>
<g><title>runtime.main&#10;1.36s (91.3%)</title>
<rect class="box" x="24.00" y="402.00" width="1416.59" height="20" rx="3" ry="3" fill="hsl(24,84%,59%)"/>
<text class="box-label" x="28.00" y="416.00">runtime.main</text>
</g>
<g><title>main.main&#10;1.36s (91.3%)</title>
<rect class="box" x="24.00" y="380.00" width="1416.59" height="20" rx="3" ry="3" fill="hsl(12,78%,69%)"/>
<text class="box-label" x="28.00" y="394.00">main.main</text>
</g>
<g><title>main.writeCPU&#10;1.36s (91.3%)</title>
<rect class="box" x="24.00" y="358.00" width="1416.59" height="20" rx="3" ry="3" fill="hsl(19,79%,72%)"/>
<text class="box-label" x="28.00" y="372.00">main.writeCPU</text>
</g>
<g><title>main.preparePerfectHash.func1&#10;1.36s (91.3%)</title>
<rect class="box" x="24.00" y="336.00" width="1416.59" height="20" rx="3" ry="3" fill="hsl(44,76%,63%)"/>
<text class="box-label" x="28.00" y="350.00">main.preparePerfectHash.func1</text>
</g>
<g><title>algo/perfecthash.Build&#10;210.0ms (14.1%)</title>
<rect class="box" x="24.00" y="314.00" width="218.74" height="20" rx="3" ry="3" fill="hsl(40,85%,70%)"/>
<text class="box-label" x="28.00" y="328.00">perfecthash.Build</text>
</g>
<g><title>algo/perfecthash.tryBuild&#10;200.0ms (13.4%)</title>
<rect class="box" x="24.00" y="292.00" width="208.32" height="20" rx="3" ry="3" fill="hsl(24,83%,71%)"/>
<text class="box-label" x="28.00" y="306.00">perfecthash.tryBuild</text>
</g>
<g><title>algo/perfecthash.placeBucket&#10;90.0ms (6.0%)</title>
<rect class="box" x="24.00" y="270.00" width="93.74" height="20" rx="3" ry="3" fill="hsl(54,76%,72%)"/>
<text class="box-label" x="28.00" y="284.00">placeBucket</text>
</g>
<g><title>algo/perfecthash.slotHash&#10;20.0ms (1.3%)</title>
<rect class="box" x="24.00" y="248.00" width="20.83" height="20" rx="3" ry="3" fill="hsl(25,81%,66%)"/>
</g>
<g><title>runtime.makeslice&#10;30.0ms (2.0%)</title>
<rect class="box" x="117.74" y="270.00" width="31.25" height="20" rx="3" ry="3" fill="hsl(15,73%,59%)"/>
</g>
<g><title>runtime.mallocgc&#10;30.0ms (2.0%)</title>
<rect class="box" x="117.74" y="248.00" width="31.25" height="20" rx="3" ry="3" fill="hsl(50,75%,70%)"/>
</g>
<g><title>runtime.deductAssistCredit&#10;20.0ms (1.3%)</title>
<rect class="box" x="117.74" y="226.00" width="20.83" height="20" rx="3" ry="3" fill="hsl(32,89%,67%)"/>
</g>
<g><title>runtime.gcAssistAlloc&#10;20.0ms (1.3%)</title>
<rect class="box" x="117.74" y="204.00" width="20.83" height="20" rx="3" ry="3" fill="hsl(12,77%,67%)"/>
</g>
<g><title>runtime.systemstack&#10;20.0ms (1.3%)</title>
<rect class="box" x="117.74" y="182.00" width="20.83" height="20" rx="3" ry="3" fill="hsl(40,73%,73%)"/>
</g>
<g><title>runtime.gcAssistAlloc.func2&#10;20.0ms (1.3%)</title>
<rect class="box" x="117.74" y="160.00" width="20.83" height="20" rx="3" ry="3" fill="hsl(59,77%,60%)"/>
</g>
<g><title>runtime.gcAssistAlloc1&#10;20.0ms (1.3%)</title>
<rect class="box" x="117.74" y="138.00" width="20.83" height="20" rx="3" ry="3" fill="hsl(51,78%,65%)"/>
</g>
<g><title>runtime.gcDrainN&#10;20.0ms (1.3%)</title>
<rect class="box" x="117.74" y="116.00" width="20.83" height="20" rx="3" ry="3" fill="hsl(41,72%,60%)"/>
</g>
<g><title>runtime.scanobject&#10;20.0ms (1.3%)</title>
<rect class="box" x="117.74" y="94.00" width="20.83" height="20" rx="3" ry="3" fill="hsl(37,82%,59%)"/>
</g>
<g><title>runtime.greyobject&#10;10.0ms (0.7%)</title>
<rect class="box" x="117.74" y="72.00" width="10.42" height="20" rx="3" ry="3" fill="hsl(34,83%,69%)"/>
</g>
<g><title>runtime.typePointers.next&#10;10.0ms (0.7%)</title>
<rect class="box" x="128.16" y="72.00" width="10.42" height="20" rx="3" ry="3" fill="hsl(58,86%,59%)"/>
</g>
<g><title>runtime.mallocgcLarge&#10;10.0ms (0.7%)</title>
<rect class="box" x="138.58" y="226.00" width="10.42" height="20" rx="3" ry="3" fill="hsl(19,75%,58%)"/>
</g>
<g><title>runtime.memclrNoHeapPointersChunked&#10;10.0ms (0.7%)</title>
<rect class="box" x="138.58" y="204.00" width="10.42" height="20" rx="3" ry="3" fill="hsl(52,77%,70%)"/>
</g>
<g><title>runtime.memclrNoHeapPointers&#10;10.0ms (0.7%)</title>
<rect class="box" x="138.58" y="182.00" width="10.42" height="20" rx="3" ry="3" fill="hsl(13,75%,63%)"/>
</g>
<g><title>sort.Slice&#10;30.0ms (2.0%)</title>
<rect class="box" x="148.99" y="270.00" width="31.25" height="20" rx="3" ry="3" fill="hsl(11,78%,69%)"/>
</g>
<g><title>sort.pdqsort_func&#10;30.0ms (2.0%)</title>
<rect class="box" x="148.99" y="248.00" width="31.25" height="20" rx="3" ry="3" fill="hsl(38,84%,68%)"/>
</g>
<g><title>sort.partition_func&#10;10.0ms (0.7%)</title>
<rect class="box" x="148.99" y="226.00" width="10.42" height="20" rx="3" ry="3" fill="hsl(58,79%,71%)"/>
</g>
<g><title>sort.pdqsort_func&#10;20.0ms (1.3%)</title>
<rect class="box" x="159.41" y="226.00" width="20.83" height="20" rx="3" ry="3" fill="hsl(38,84%,68%)"/>
</g>
<g><title>sort.pdqsort_func&#10;10.0ms (0.7%)</title>
<rect class="box" x="159.41" y="204.00" width="10.42" height="20" rx="3" ry="3" fill="hsl(38,84%,68%)"/>
</g>
<g><title>sort.partition_func&#10;10.0ms (0.7%)</title>
<rect class="box" x="159.41" y="182.00" width="10.42" height="20" rx="3" ry="3" fill="hsl(58,79%,71%)"/>
</g>
<g><title>internal/reflectlite.Swapper.func5&#10;10.0ms (0.7%)</title>
<rect class="box" x="159.41" y="160.00" width="10.42" height="20" rx="3" ry="3" fill="hsl(29,73%,70%)"/>
</g>
<g><title>sort.partitionEqual_func&#10;10.0ms (0.7%)</title>
<rect class="box" x="169.83" y="204.00" width="10.42" height="20" rx="3" ry="3" fill="hsl(44,80%,73%)"/>
</g>
<g><title>algo/perfecthash.tryBuild.func1&#10;10.0ms (0.7%)</title>
<rect class="box" x="169.83" y="182.00" width="10.42" height="20" rx="3" ry="3" fill="hsl(57,88%,62%)"/>
</g>
<g><title>algo/perfecthash.hashKey&#10;10.0ms (0.7%)</title>
<rect class="box" x="232.32" y="292.00" width="10.42" height="20" rx="3" ry="3" fill="hsl(11,89%,68%)"/>
</g>
<g><title>algo/perfecthash.(*Index).Get&#10;1.05s (70.5%)</title>
<rect class="box" x="242.74" y="314.00" width="1093.69" height="20" rx="3" ry="3" fill="hsl(53,76%,66%)"/>
<text class="box-label" x="246.74" y="328.00">perfecthash.(*Index).Get</text>
</g>
<g><title>algo/perfecthash.hashKey&#10;300.0ms (20.1%)</title>
<rect class="box" x="242.74" y="292.00" width="312.48" height="20" rx="3" ry="3" fill="hsl(11,89%,68%)"/>
<text class="box-label" x="246.74" y="306.00">perfecthash.hashKey</text>
</g>
<g><title>algo/perfecthash.mix&#10;10.0ms (0.7%)</title>
<rect class="box" x="242.74" y="270.00" width="10.42" height="20" rx="3" ry="3" fill="hsl(51,84%,72%)"/>
</g>
<g><title>runtime.memequal&#10;10.0ms (0.7%)</title>
<rect class="box" x="555.22" y="292.00" width="10.42" height="20" rx="3" ry="3" fill="hsl(48,80%,59%)"/>
</g>
<g><title>algo/perfecthash.slotHash&#10;10.0ms (0.7%)</title>
<rect class="box" x="565.64" y="292.00" width="10.42" height="20" rx="3" ry="3" fill="hsl(25,81%,66%)"/>
</g>
<g><title>algo/perfecthash.mix&#10;10.0ms (0.7%)</title>
<rect class="box" x="565.64" y="270.00" width="10.42" height="20" rx="3" ry="3" fill="hsl(51,84%,72%)"/>
</g>
<g><title>runtime.gcBgMarkWorker&#10;70.0ms (4.7%)</title>
<rect class="box" x="1440.59" y="402.00" width="72.91" height="20" rx="3" ry="3" fill="hsl(40,87%,62%)"/>
<text class="box-label" x="1444.59" y="416.00">gcBgMark…</text>
</g>
<g><title>runtime.systemstack&#10;70.0ms (4.7%)</title>
<rect class="box" x="1440.59" y="380.00" width="72.91" height="20" rx="3" ry="3" fill="hsl(40,73%,73%)"/>
<text class="box-label" x="1444.59" y="394.00">systemst…</text>
</g>
<g><title>runtime.gcBgMarkWorker.func2&#10;70.0ms (4.7%)</title>
<rect class="box" x="1440.59" y="358.00" width="72.91" height="20" rx="3" ry="3" fill="hsl(34,77%,65%)"/>
<text class="box-label" x="1444.59" y="372.00">func2</text>
</g>
<g><title>runtime.gcDrainMarkWorkerDedicated&#10;50.0ms (3.4%)</title>
<rect class="box" x="1440.59" y="336.00" width="52.08" height="20" rx="3" ry="3" fill="hsl(55,73%,64%)"/>
<text class="box-label" x="1444.59" y="350.00">gcDra…</text>
</g>
<g><title>runtime.gcDrain&#10;50.0ms (3.4%)</title>
<rect class="box" x="1440.59" y="314.00" width="52.08" height="20" rx="3" ry="3" fill="hsl(40,88%,61%)"/>
<text class="box-label" x="1444.59" y="328.00">gcDra…</text>
</g>
<g><title>runtime.scanobject&#10;50.0ms (3.4%)</title>
<rect class="box" x="1440.59" y="292.00" width="52.08" height="20" rx="3" ry="3" fill="hsl(37,82%,59%)"/>
<text class="box-label" x="1444.59" y="306.00">scano…</text>
</g>
<g><title>runtime.findObject&#10;20.0ms (1.3%)</title>
<rect class="box" x="1440.59" y="270.00" width="20.83" height="20" rx="3" ry="3" fill="hsl(38,73%,70%)"/>
</g>
<g><title>runtime.(*mspan).base&#10;10.0ms (0.7%)</title>
<rect class="box" x="1440.59" y="248.00" width="10.42" height="20" rx="3" ry="3" fill="hsl(48,85%,69%)"/>
</g>
<g><title>runtime.spanOf&#10;10.0ms (0.7%)</title>
<rect class="box" x="1451.01" y="248.00" width="10.42" height="20" rx="3" ry="3" fill="hsl(53,81%,69%)"/>
</g>
<g><title>runtime.greyobject&#10;10.0ms (0.7%)</title>
<rect class="box" x="1461.42" y="270.00" width="10.42" height="20" rx="3" ry="3" fill="hsl(34,83%,69%)"/>
</g>
<g><title>runtime.typePointers.next&#10;10.0ms (0.7%)</title>
<rect class="box" x="1471.84" y="270.00" width="10.42" height="20" rx="3" ry="3" fill="hsl(58,86%,59%)"/>
</g>
<g><title>runtime.gcDrainMarkWorkerIdle&#10;20.0ms (1.3%)</title>
<rect class="box" x="1492.67" y="336.00" width="20.83" height="20" rx="3" ry="3" fill="hsl(29,76%,61%)"/>
</g>
<g><title>runtime.gcDrain&#10;20.0ms (1.3%)</title>
<rect class="box" x="1492.67" y="314.00" width="20.83" height="20" rx="3" ry="3" fill="hsl(40,88%,61%)"/>
</g>
<g><title>runtime.scanobject&#10;20.0ms (1.3%)</title>
<rect class="box" x="1492.67" y="292.00" width="20.83" height="20" rx="3" ry="3" fill="hsl(37,82%,59%)"/>
</g>
<g><title>runtime.greyobject&#10;10.0ms (0.7%)</title>
<rect class="box" x="1492.67" y="270.00" width="10.42" height="20" rx="3" ry="3" fill="hsl(34,83%,69%)"/>
</g>
<g><title>runtime.findObject&#10;10.0ms (0.7%)</title>
<rect class="box" x="1503.09" y="270.00" width="10.42" height="20" rx="3" ry="3" fill="hsl(38,73%,70%)"/>
</g>
<g><title>runtime.spanOf&#10;10.0ms (0.7%)</title>
<rect class="box" x="1503.09" y="248.00" width="10.42" height="20" rx="3" ry="3" fill="hsl(53,81%,69%)"/>
</g>
<g><title>runtime.systemstack&#10;10.0ms (0.7%)</title>
<rect class="box" x="1513.50" y="402.00" width="10.42" height="20" rx="3" ry="3" fill="hsl(40,73%,73%)"/>
</g>
<g><title>runtime.gcMarkDone.forEachP.func5&#10;10.0ms (0.7%)</title>
<rect class="box" x="1513.50" y="380.00" width="10.42" height="20" rx="3" ry="3" fill="hsl(15,76%,59%)"/>
</g>
<g><title>runtime.forEachPInternal&#10;10.0ms (0.7%)</title>
<rect class="box" x="1513.50" y="358.00" width="10.42" height="20" rx="3" ry="3" fill="hsl(33,75%,64%)"/>
</g>
<g><title>runtime.preemptall&#10;10.0ms (0.7%)</title>
<rect class="box" x="1513.50" y="336.00" width="10.42" height="20" rx="3" ry="3" fill="hsl(57,75%,63%)"/>
</g>
<g><title>runtime.preemptone&#10;10.0ms (0.7%)</title>
<rect class="box" x="1513.50" y="314.00" width="10.42" height="20" rx="3" ry="3" fill="hsl(11,85%,68%)"/>
</g>
<g><title>runtime.preemptM&#10;10.0ms (0.7%)</title>
<rect class="box" x="1513.50" y="292.00" width="10.42" height="20" rx="3" ry="3" fill="hsl(47,81%,61%)"/>
</g>
<g><title>runtime.signalM&#10;10.0ms (0.7%)</title>
<rect class="box" x="1513.50" y="270.00" width="10.42" height="20" rx="3" ry="3" fill="hsl(59,74%,64%)"/>
</g>
<g><title>runtime.pthread_kill&#10;10.0ms (0.7%)</title>
<rect class="box" x="1513.50" y="248.00" width="10.42" height="20" rx="3" ry="3" fill="hsl(30,73%,60%)"/>
</g>
<g><title>runtime.morestack&#10;30.0ms (2.0%)</title>
<rect class="box" x="1523.92" y="402.00" width="31.25" height="20" rx="3" ry="3" fill="hsl(15,74%,68%)"/>
</g>
<g><title>runtime.newstack&#10;30.0ms (2.0%)</title>
<rect class="box" x="1523.92" y="380.00" width="31.25" height="20" rx="3" ry="3" fill="hsl(17,72%,67%)"/>
</g>
<g><title>runtime.gopreempt_m&#10;30.0ms (2.0%)</title>
<rect class="box" x="1523.92" y="358.00" width="31.25" height="20" rx="3" ry="3" fill="hsl(55,88%,71%)"/>
</g>
<g><title>runtime.goschedImpl&#10;30.0ms (2.0%)</title>
<rect class="box" x="1523.92" y="336.00" width="31.25" height="20" rx="3" ry="3" fill="hsl(44,86%,65%)"/>
</g>
<g><title>runtime.wakep&#10;30.0ms (2.0%)</title>
<rect class="box" x="1523.92" y="314.00" width="31.25" height="20" rx="3" ry="3" fill="hsl(8,72%,61%)"/>
</g>
<g><title>runtime.startm&#10;30.0ms (2.0%)</title>
<rect class="box" x="1523.92" y="292.00" width="31.25" height="20" rx="3" ry="3" fill="hsl(40,89%,65%)"/>
</g>
<g><title>runtime.notewakeup&#10;30.0ms (2.0%)</title>
<rect class="box" x="1523.92" y="270.00" width="31.25" height="20" rx="3" ry="3" fill="hsl(31,88%,62%)"/>
</g>
<g><title>runtime.semawakeup&#10;30.0ms (2.0%)</title>
<rect class="box" x="1523.92" y="248.00" width="31.25" height="20" rx="3" ry="3" fill="hsl(48,89%,65%)"/>
</g>
<g><title>runtime.pthread_cond_signal&#10;30.0ms (2.0%)</title>
<rect class="box" x="1523.92" y="226.00" width="31.25" height="20" rx="3" ry="3" fill="hsl(40,81%,63%)"/>
</g>
<g><title>runtime.mcall&#10;20.0ms (1.3%)</title>
<rect class="box" x="1555.17" y="402.00" width="20.83" height="20" rx="3" ry="3" fill="hsl(49,80%,66%)"/>
</g>
<g><title>runtime.gosched_m&#10;10.0ms (0.7%)</title>
<rect class="box" x="1555.17" y="380.00" width="10.42" height="20" rx="3" ry="3" fill="hsl(38,88%,67%)"/>
</g>
<g><title>runtime.goschedImpl&#10;10.0ms (0.7%)</title>
<rect class="box" x="1555.17" y="358.00" width="10.42" height="20" rx="3" ry="3" fill="hsl(44,86%,65%)"/>
</g>
<g><title>runtime.wakep&#10;10.0ms (0.7%)</title>
<rect class="box" x="1555.17" y="336.00" width="10.42" height="20" rx="3" ry="3" fill="hsl(8,72%,61%)"/>
</g>
<g><title>runtime.startm&#10;10.0ms (0.7%)</title>
<rect class="box" x="1555.17" y="314.00" width="10.42" height="20" rx="3" ry="3" fill="hsl(40,89%,65%)"/>
</g>
<g><title>runtime.notewakeup&#10;10.0ms (0.7%)</title>
<rect class="box" x="1555.17" y="292.00" width="10.42" height="20" rx="3" ry="3" fill="hsl(31,88%,62%)"/>
</g>
<g><title>runtime.semawakeup&#10;10.0ms (0.7%)</title>
<rect class="box" x="1555.17" y="270.00" width="10.42" height="20" rx="3" ry="3" fill="hsl(48,89%,65%)"/>
</g>
<g><title>runtime.pthread_cond_signal&#10;10.0ms (0.7%)</title>
<rect class="box" x="1555.17" y="248.00" width="10.42" height="20" rx="3" ry="3" fill="hsl(40,81%,63%)"/>
</g>
<g><title>runtime.park_m&#10;10.0ms (0.7%)</title>
<rect class="box" x="1565.58" y="380.00" width="10.42" height="20" rx="3" ry="3" fill="hsl(48,81%,69%)"/>
</g>
<g><title>runtime.schedule&#10;10.0ms (0.7%)</title>
<rect class="box" x="1565.58" y="358.00" width="10.42" height="20" rx="3" ry="3" fill="hsl(48,74%,61%)"/>
</g>
<g><title>runtime.findRunnable&#10;10.0ms (0.7%)</title>
<rect class="box" x="1565.58" y="336.00" width="10.42" height="20" rx="3" ry="3" fill="hsl(20,72%,70%)"/>
</g>
<g><title>runtime.stopm&#10;10.0ms (0.7%)</title>
<rect class="box" x="1565.58" y="314.00" width="10.42" height="20" rx="3" ry="3" fill="hsl(52,80%,61%)"/>
</g>
<g><title>runtime.mPark&#10;10.0ms (0.7%)</title>
<rect class="box" x="1565.58" y="292.00" width="10.42" height="20" rx="3" ry="3" fill="hsl(35,83%,65%)"/>
</g>
<g><title>runtime.notesleep&#10;10.0ms (0.7%)</title>
<rect class="box" x="1565.58" y="270.00" width="10.42" height="20" rx="3" ry="3" fill="hsl(40,77%,67%)"/>
</g>
<g><title>runtime.semasleep&#10;10.0ms (0.7%)</title>
<rect class="box" x="1565.58" y="248.00" width="10.42" height="20" rx="3" ry="3" fill="hsl(19,80%,59%)"/>
</g>
<g><title>runtime.pthread_cond_wait&#10;10.0ms (0.7%)</title>
<rect class="box" x="1565.58" y="226.00" width="10.42" height="20" rx="3" ry="3" fill="hsl(30,89%,72%)"/>
</g>
<text class="subtitle" x="24" y="466">Generated from go tool pprof flamegraph data</text>
</svg>