<svg xmlns="http://www.w3.org/2000/svg" width="1600" height="410" viewBox="0 0 1600 410" role="img" aria-label="lsh flamegraph">
<style>text{font-family:-apple-system,BlinkMacSystemFont,'Segoe UI',Helvetica,Arial,sans-serif;}.title{font-size:24px;font-weight:700;fill:#222;}.subtitle{font-size:13px;fill:#5d5d5d;}.box-label{font-size:12px;fill:#222;pointer-events:none;}.box{stroke:#ffffff;stroke-width:1;}</style>
<rect x="0" y="0" width="1600" height="410" fill="#fffaf5"/>
<text class="title" x="24" y="34">lsh flamegraph</text>
<text class="subtitle" x="24" y="56">pprof static flamegraph • total samples 660.0ms • widest path is the hottest path</text>
<g><title>program&#10;660.0ms (100.0%)</title>
<rect class="box" x="24.00" y="358.00" width="1552.00" height="20" rx="3" ry="3" fill="hsl(38,82%,62%)"/>
<text class="box-label" x="28.00" y="372.00">program</text>
</g>
<g><title>runtime.systemstack&#10;120.0ms (18.2%)</title>
<rect class="box" x="24.00" y="336.00" width="282.18" height="20" rx="3" ry="3" fill="hsl(50,81%,73%)"/>
<text class="box-label" x="28.00" y="350.00">runtime.systemstack</text>
</g>
<g><title>runtime.(*mheap).alloc.func1&#10;100.0ms (15.2%)</title>
<rect class="box" x="24.00" y="314.00" width="235.15" height="20" rx="3" ry="3" fill="hsl(36,87%,71%)"/>
<text class="box-label" x="28.00" y="328.00">runtime.(*mheap).alloc.func1</text>
</g>
<g><title>runtime.(*mheap).allocSpan&#10;100.0ms (15.2%)</title>
<rect class="box" x="24.00" y="292.00" width="235.15" height="20" rx="3" ry="3" fill="hsl(32,74%,60%)"/>
<text class="box-label" x="28.00" y="306.00">runtime.(*mheap).allocSpan</text>
</g>
<g><title>runtime.sysUsed&#10;100.0ms (15.2%)</title>
<rect class="box" x="24.00" y="270.00" width="235.15" height="20" rx="3" ry="3" fill="hsl(12,78%,60%)"/>
<text class="box-label" x="28.00" y="284.00">runtime.sysUsed</text>
</g>
<g><title>runtime.sysUsedOS&#10;100.0ms (15.2%)</title>
<rect class="box" x="24.00" y="248.00" width="235.15" height="20" rx="3" ry="3" fill="hsl(23,85%,69%)"/>
<text class="box-label" x="28.00" y="262.00">runtime.sysUsedOS</text>
</g>
<g><title>runtime.madvise&#10;100.0ms (15.2%)</title>
<rect class="box" x="24.00" y="226.00" width="235.15" height="20" rx="3" ry="3" fill="hsl(21,89%,72%)"/>
<text class="box-label" x="28.00" y="240.00">runtime.madvise</text>
</g>
<g><title>runtime.gcBgMarkWorker.func2&#10;10.0ms (1.5%)</title>
<rect class="box" x="259.15" y="314.00" width="23.52" height="20" rx="3" ry="3" fill="hsl(57,73%,64%)"/>
</g>
<g><title>runtime.gcDrainMarkWorkerDedicated&#10;10.0ms (1.5%)</title>
<rect class="box" x="259.15" y="292.00" width="23.52" height="20" rx="3" ry="3" fill="hsl(58,86%,66%)"/>
</g>
<g><title>runtime.gcDrain&#10;10.0ms (1.5%)</title>
<rect class="box" x="259.15" y="270.00" width="23.52" height="20" rx="3" ry="3" fill="hsl(25,87%,61%)"/>
</g>
<g><title>runtime.markroot&#10;10.0ms (1.5%)</title>
<rect class="box" x="259.15" y="248.00" width="23.52" height="20" rx="3" ry="3" fill="hsl(23,87%,66%)"/>
</g>
<g><title>runtime.markroot.func1&#10;10.0ms (1.5%)</title>
<rect class="box" x="259.15" y="226.00" width="23.52" height="20" rx="3" ry="3" fill="hsl(47,89%,72%)"/>
</g>
<g><title>runtime.suspendG&#10;10.0ms (1.5%)</title>
<rect class="box" x="259.15" y="204.00" width="23.52" height="20" rx="3" ry="3" fill="hsl(57,85%,72%)"/>
</g>
<g><title>runtime.osyield&#10;10.0ms (1.5%)</title>
<rect class="box" x="259.15" y="182.00" width="23.52" height="20" rx="3" ry="3" fill="hsl(14,85%,73%)"/>
</g>
<g><title>runtime.usleep&#10;10.0ms (1.5%)</title>
<rect class="box" x="259.15" y="160.00" width="23.52" height="20" rx="3" ry="3" fill="hsl(18,76%,69%)"/>
</g>
<g><title>runtime.gcMarkTermination.func3&#10;10.0ms (1.5%)</title>
<rect class="box" x="282.67" y="314.00" width="23.52" height="20" rx="3" ry="3" fill="hsl(29,82%,69%)"/>
</g>
<g><title>runtime.startTheWorldWithSema&#10;10.0ms (1.5%)</title>
<rect class="box" x="282.67" y="292.00" width="23.52" height="20" rx="3" ry="3" fill="hsl(35,89%,62%)"/>
</g>
<g><title>runtime.netpoll&#10;10.0ms (1.5%)</title>
<rect class="box" x="282.67" y="270.00" width="23.52" height="20" rx="3" ry="3" fill="hsl(43,72%,73%)"/>
</g>
<g><title>runtime.kevent&#10;10.0ms (1.5%)</title>
<rect class="box" x="282.67" y="248.00" width="23.52" height="20" rx="3" ry="3" fill="hsl(49,88%,59%)"/>
</g>
<g><title>runtime.main&#10;480.0ms (72.7%)</title>
<rect class="box" x="306.18" y="336.00" width="1128.73" height="20" rx="3" ry="3" fill="hsl(46,82%,70%)"/>
<text class="box-label" x="310.18" y="350.00">runtime.main</text>
</g>
<g><title>main.main&#10;480.0ms (72.7%)</title>
<rect class="box" x="306.18" y="314.00" width="1128.73" height="20" rx="3" ry="3" fill="hsl(34,72%,61%)"/>
<text class="box-label" x="310.18" y="328.00">main.main</text>
</g>
<g><title>main.writeCPU&#10;480.0ms (72.7%)</title>
<rect class="box" x="306.18" y="292.00" width="1128.73" height="20" rx="3" ry="3" fill="hsl(49,77%,67%)"/>
<text class="box-label" x="310.18" y="306.00">main.writeCPU</text>
</g>
<g><title>main.prepareLSH.func1&#10;480.0ms (72.7%)</title>
<rect class="box" x="306.18" y="270.00" width="1128.73" height="20" rx="3" ry="3" fill="hsl(20,88%,59%)"/>
<text class="box-label" x="310.18" y="284.00">main.prepareLSH.func1</text>
</g>
<g><title>algo/lsh.(*LSH).FindDuplicates&#10;320.0ms (48.5%)</title>
<rect class="box" x="306.18" y="248.00" width="752.48" height="20" rx="3" ry="3" fill="hsl(39,76%,65%)"/>
<text class="box-label" x="310.18" y="262.00">lsh.(*LSH).FindDuplicates</text>
</g>
<g><title>algo/lsh.(*LSH).FindDuplicatesWithStats&#10;320.0ms (48.5%)</title>
<rect class="box" x="306.18" y="226.00" width="752.48" height="20" rx="3" ry="3" fill="hsl(45,77%,68%)"/>
<text class="box-label" x="310.18" y="240.00">lsh.(*LSH).FindDuplicatesWithStats</text>
</g>
<g><title>algo/lsh.(*LSH).acquireDenseSeen&#10;20.0ms (3.0%)</title>
<rect class="box" x="306.18" y="204.00" width="47.03" height="20" rx="3" ry="3" fill="hsl(32,78%,65%)"/>
<text class="box-label" x="310.18" y="218.00">acqu…</text>
</g>
<g><title>runtime.memclrNoHeapPointers&#10;20.0ms (3.0%)</title>
<rect class="box" x="306.18" y="182.00" width="47.03" height="20" rx="3" ry="3" fill="hsl(15,80%,61%)"/>
<text class="box-label" x="310.18" y="196.00">memc…</text>
</g>
<g><title>algo/lsh.pairOffset&#10;20.0ms (3.0%)</title>
<rect class="box" x="353.21" y="204.00" width="47.03" height="20" rx="3" ry="3" fill="hsl(35,81%,63%)"/>
<text class="box-label" x="357.21" y="218.00">pair…</text>
</g>
<g><title>runtime.makeslice&#10;20.0ms (3.0%)</title>
<rect class="box" x="400.24" y="204.00" width="47.03" height="20" rx="3" ry="3" fill="hsl(58,84%,73%)"/>
<text class="box-label" x="404.24" y="218.00">make…</text>
</g>
<g><title>runtime.mallocgc&#10;20.0ms (3.0%)</title>
<rect class="box" x="400.24" y="182.00" width="47.03" height="20" rx="3" ry="3" fill="hsl(35,84%,72%)"/>
<text class="box-label" x="404.24" y="196.00">mall…</text>
</g>
<g><title>runtime.mallocgcLarge&#10;20.0ms (3.0%)</title>
<rect class="box" x="400.24" y="160.00" width="47.03" height="20" rx="3" ry="3" fill="hsl(19,88%,67%)"/>
<text class="box-label" x="404.24" y="174.00">mall…</text>
</g>
<g><title>runtime.profilealloc&#10;10.0ms (1.5%)</title>
<rect class="box" x="400.24" y="138.00" width="23.52" height="20" rx="3" ry="3" fill="hsl(57,89%,58%)"/>
</g>
<g><title>runtime.mProf_Malloc&#10;10.0ms (1.5%)</title>
<rect class="box" x="400.24" y="116.00" width="23.52" height="20" rx="3" ry="3" fill="hsl(27,88%,64%)"/>
</g>
<g><title>runtime.stkbucket&#10;10.0ms (1.5%)</title>
<rect class="box" x="400.24" y="94.00" width="23.52" height="20" rx="3" ry="3" fill="hsl(45,83%,63%)"/>
</g>
<g><title>internal/runtime/atomic.(*UnsafePointer).Load&#10;10.0ms (1.5%)</title>
<rect class="box" x="400.24" y="72.00" width="23.52" height="20" rx="3" ry="3" fill="hsl(28,80%,68%)"/>
</g>
<g><title>runtime.memclrNoHeapPointersChunked&#10;10.0ms (1.5%)</title>
<rect class="box" x="423.76" y="138.00" width="23.52" height="20" rx="3" ry="3" fill="hsl(44,75%,58%)"/>
</g>
<g><title>runtime.memclrNoHeapPointers&#10;10.0ms (1.5%)</title>
<rect class="box" x="423.76" y="116.00" width="23.52" height="20" rx="3" ry="3" fill="hsl(15,80%,61%)"/>
</g>
<g><title>runtime.mapIterNext&#10;40.0ms (6.1%)</title>
<rect class="box" x="447.27" y="204.00" width="94.06" height="20" rx="3" ry="3" fill="hsl(32,89%,72%)"/>
<text class="box-label" x="451.27" y="218.00">mapIterNext</text>
</g>
<g><title>internal/runtime/maps.(*Iter).Next&#10;20.0ms (3.0%)</title>
<rect class="box" x="447.27" y="182.00" width="47.03" height="20" rx="3" ry="3" fill="hsl(14,84%,61%)"/>
<text class="box-label" x="451.27" y="196.00">Next</text>
</g>
<g><title>internal/runtime/maps.(*groupReference).elem&#10;20.0ms (3.0%)</title>
<rect class="box" x="447.27" y="160.00" width="47.03" height="20" rx="3" ry="3" fill="hsl(27,88%,59%)"/>
<text class="box-label" x="451.27" y="174.00">elem</text>
</g>
<g><title>algo/lsh.BuildIndex&#10;150.0ms (22.7%)</title>
<rect class="box" x="1058.67" y="248.00" width="352.73" height="20" rx="3" ry="3" fill="hsl(49,86%,62%)"/>
<text class="box-label" x="1062.67" y="262.00">lsh.BuildIndex</text>
</g>
<g><title>algo/lsh.(*LSH).Add&#10;110.0ms (16.7%)</title>
<rect class="box" x="1058.67" y="226.00" width="258.67" height="20" rx="3" ry="3" fill="hsl(25,76%,58%)"/>
<text class="box-label" x="1062.67" y="240.00">lsh.(*LSH).Add</text>
</g>
<g><title>runtime.growslice&#10;50.0ms (7.6%)</title>
<rect class="box" x="1058.67" y="204.00" width="117.58" height="20" rx="3" ry="3" fill="hsl(19,86%,62%)"/>
<text class="box-label" x="1062.67" y="218.00">growslice</text>
</g>
<g><title>runtime.mallocgc&#10;10.0ms (1.5%)</title>
<rect class="box" x="1058.67" y="182.00" width="23.52" height="20" rx="3" ry="3" fill="hsl(35,84%,72%)"/>
</g>
<g><title>runtime.mallocgcTiny&#10;10.0ms (1.5%)</title>
<rect class="box" x="1058.67" y="160.00" width="23.52" height="20" rx="3" ry="3" fill="hsl(12,78%,68%)"/>
</g>
<g><title>runtime.getMCache&#10;10.0ms (1.5%)</title>
<rect class="box" x="1058.67" y="138.00" width="23.52" height="20" rx="3" ry="3" fill="hsl(54,88%,67%)"/>
</g>
<g><title>runtime.memmove&#10;10.0ms (1.5%)</title>
<rect class="box" x="1082.18" y="182.00" width="23.52" height="20" rx="3" ry="3" fill="hsl(8,75%,62%)"/>
</g>
<g><title>runtime.nextslicecap&#10;10.0ms (1.5%)</title>
<rect class="box" x="1105.70" y="182.00" width="23.52" height="20" rx="3" ry="3" fill="hsl(50,83%,58%)"/>
</g>
<g><title>runtime.mapassign&#10;40.0ms (6.1%)</title>
<rect class="box" x="1176.24" y="204.00" width="94.06" height="20" rx="3" ry="3" fill="hsl(50,78%,71%)"/>
<text class="box-label" x="1180.24" y="218.00">mapassign</text>
</g>
<g><title>internal/runtime/maps.(*groupReference).ctrls&#10;10.0ms (1.5%)</title>
<rect class="box" x="1176.24" y="182.00" width="23.52" height="20" rx="3" ry="3" fill="hsl(18,89%,72%)"/>
</g>
<g><title>runtime.gcBgMarkWorker&#10;30.0ms (4.5%)</title>
<rect class="box" x="1434.91" y="336.00" width="70.55" height="20" rx="3" ry="3" fill="hsl(25,72%,64%)"/>
<text class="box-label" x="1438.91" y="350.00">gcBgMar…</text>
</g>
<g><title>runtime.systemstack&#10;30.0ms (4.5%)</title>
<rect class="box" x="1434.91" y="314.00" width="70.55" height="20" rx="3" ry="3" fill="hsl(50,81%,73%)"/>
<text class="box-label" x="1438.91" y="328.00">systems…</text>
</g>
<g><title>runtime.gcBgMarkWorker.func2&#10;30.0ms (4.5%)</title>
<rect class="box" x="1434.91" y="292.00" width="70.55" height="20" rx="3" ry="3" fill="hsl(57,73%,64%)"/>
<text class="box-label" x="1438.91" y="306.00">func2</text>
</g>
<g><title>runtime.gcDrainMarkWorkerIdle&#10;20.0ms (3.0%)</title>
<rect class="box" x="1434.91" y="270.00" width="47.03" height="20" rx="3" ry="3" fill="hsl(17,78%,60%)"/>
<text class="box-label" x="1438.91" y="284.00">gcDr…</text>
</g>
<g><title>runtime.gcDrain&#10;20.0ms (3.0%)</title>
<rect class="box" x="1434.91" y="248.00" width="47.03" height="20" rx="3" ry="3" fill="hsl(25,87%,61%)"/>
<text class="box-label" x="1438.91" y="262.00">gcDr…</text>
</g>
<g><title>runtime.scanobject&#10;20.0ms (3.0%)</title>
<rect class="box" x="1434.91" y="226.00" width="47.03" height="20" rx="3" ry="3" fill="hsl(59,76%,64%)"/>
<text class="box-label" x="1438.91" y="240.00">scan…</text>
</g>
<g><title>runtime.greyobject&#10;20.0ms (3.0%)</title>
<rect class="box" x="1434.91" y="204.00" width="47.03" height="20" rx="3" ry="3" fill="hsl(18,72%,73%)"/>
<text class="box-label" x="1438.91" y="218.00">grey…</text>
</g>
<g><title>runtime.markBits.isMarked&#10;10.0ms (1.5%)</title>
<rect class="box" x="1434.91" y="182.00" width="23.52" height="20" rx="3" ry="3" fill="hsl(24,76%,72%)"/>
</g>
<g><title>runtime.markBits.setMarked&#10;10.0ms (1.5%)</title>
<rect class="box" x="1458.42" y="182.00" width="23.52" height="20" rx="3" ry="3" fill="hsl(13,85%,62%)"/>
</g>
<g><title>runtime.gcDrainMarkWorkerDedicated&#10;10.0ms (1.5%)</title>
<rect class="box" x="1481.94" y="270.00" width="23.52" height="20" rx="3" ry="3" fill="hsl(58,86%,66%)"/>
</g>
<g><title>runtime.gcDrain&#10;10.0ms (1.5%)</title>
<rect class="box" x="1481.94" y="248.00" width="23.52" height="20" rx="3" ry="3" fill="hsl(25,87%,61%)"/>
</g>
<g><title>runtime.scanobject&#10;10.0ms (1.5%)</title>
<rect class="box" x="1481.94" y="226.00" width="23.52" height="20" rx="3" ry="3" fill="hsl(59,76%,64%)"/>
</g>
<g><title>runtime.typePointers.nextFast&#10;10.0ms (1.5%)</title>
<rect class="box" x="1481.94" y="204.00" width="23.52" height="20" rx="3" ry="3" fill="hsl(9,85%,67%)"/>
</g>
<g><title>runtime.morestack&#10;10.0ms (1.5%)</title>
<rect class="box" x="1505.45" y="336.00" width="23.52" height="20" rx="3" ry="3" fill="hsl(29,81%,72%)"/>
</g>
<g><title>runtime.newstack&#10;10.0ms (1.5%)</title>
<rect class="box" x="1505.45" y="314.00" width="23.52" height="20" rx="3" ry="3" fill="hsl(47,89%,63%)"/>
</g>
<g><title>runtime.gopreempt_m&#10;10.0ms (1.5%)</title>
<rect class="box" x="1505.45" y="292.00" width="23.52" height="20" rx="3" ry="3" fill="hsl(45,80%,65%)"/>
</g>
<g><title>runtime.goschedImpl&#10;10.0ms (1.5%)</title>
<rect class="box" x="1505.45" y="270.00" width="23.52" height="20" rx="3" ry="3" fill="hsl(34,77%,59%)"/>
</g>
<g><title>runtime.wakep&#10;10.0ms (1.5%)</title>
<rect class="box" x="1505.45" y="248.00" width="23.52" height="20" rx="3" ry="3" fill="hsl(34,75%,68%)"/>
</g>
<g><title>runtime.startm&#10;10.0ms (1.5%)</title>
<rect class="box" x="1505.45" y="226.00" width="23.52" height="20" rx="3" ry="3" fill="hsl(38,80%,68%)"/>
</g>
<g><title>runtime.notewakeup&#10;10.0ms (1.5%)</title>
<rect class="box" x="1505.45" y="204.00" width="23.52" height="20" rx="3" ry="3" fill="hsl(37,75%,58%)"/>
</g>
<g><title>runtime.semawakeup&#10;10.0ms (1.5%)</title>
<rect class="box" x="1505.45" y="182.00" width="23.52" height="20" rx="3" ry="3" fill="hsl(50,86%,62%)"/>
</g>
<g><title>runtime.pthread_cond_signal&#10;10.0ms (1.5%)</title>
<rect class="box" x="1505.45" y="160.00" width="23.52" height="20" rx="3" ry="3" fill="hsl(50,82%,68%)"/>
</g>
<g><title>runtime.mcall&#10;20.0ms (3.0%)</title>
<rect class="box" x="1528.97" y="336.00" width="47.03" height="20" rx="3" ry="3" fill="hsl(36,72%,64%)"/>
<text class="box-label" x="1532.97" y="350.00">mcall</text>
</g>
<g><title>runtime.park_m&#10;20.0ms (3.0%)</title>
<rect class="box" x="1528.97" y="314.00" width="47.03" height="20" rx="3" ry="3" fill="hsl(8,79%,63%)"/>
<text class="box-label" x="1532.97" y="328.00">park…</text>
</g>
<g><title>runtime.schedule&#10;20.0ms (3.0%)</title>
<rect class="box" x="1528.97" y="292.00" width="47.03" height="20" rx="3" ry="3" fill="hsl(36,85%,70%)"/>
<text class="box-label" x="1532.97" y="306.00">sche…</text>
</g>
<g><title>runtime.resetspinning&#10;10.0ms (1.5%)</title>
<rect class="box" x="1528.97" y="270.00" width="23.52" height="20" rx="3" ry="3" fill="hsl(59,84%,64%)"/>
</g>
<g><title>runtime.wakep&#10;10.0ms (1.5%)</title>
<rect class="box" x="1528.97" y="248.00" width="23.52" height="20" rx="3" ry="3" fill="hsl(34,75%,68%)"/>
</g>
<g><title>runtime.startm&#10;10.0ms (1.5%)</title>
<rect class="box" x="1528.97" y="226.00" width="23.52" height="20" rx="3" ry="3" fill="hsl(38,80%,68%)"/>
</g>
<g><title>runtime.notewakeup&#10;10.0ms (1.5%)</title>
<rect class="box" x="1528.97" y="204.00" width="23.52" height="20" rx="3" ry="3" fill="hsl(37,75%,58%)"/>
</g>
<g><title>runtime.semawakeup&#10;10.0ms (1.5%)</title>
<rect class="box" x="1528.97" y="182.00" width="23.52" height="20" rx="3" ry="3" fill="hsl(50,86%,62%)"/>
</g>
<g><title>runtime.pthread_cond_signal&#10;10.0ms (1.5%)</title>
<rect class="box" x="1528.97" y="160.00" width="23.52" height="20" rx="3" ry="3" fill="hsl(50,82%,68%)"/>
</g>
<g><title>runtime.findRunnable&#10;10.0ms (1.5%)</title>
<rect class="box" x="1552.48" y="270.00" width="23.52" height="20" rx="3" ry="3" fill="hsl(49,72%,69%)"/>
</g>
<g><title>runtime.lock&#10;10.0ms (1.5%)</title>
<rect class="box" x="1552.48" y="248.00" width="23.52" height="20" rx="3" ry="3" fill="hsl(31,86%,64%)"/>
</g>
<g><title>runtime.lockWithRank&#10;10.0ms (1.5%)</title>
<rect class="box" x="1552.48" y="226.00" width="23.52" height="20" rx="3" ry="3" fill="hsl(42,83%,67%)"/>
</g>
<g><title>runtime.lock2&#10;10.0ms (1.5%)</title>
<rect class="box" x="1552.48" y="204.00" width="23.52" height="20" rx="3" ry="3" fill="hsl(29,82%,70%)"/>
</g>
<g><title>runtime.osyield&#10;10.0ms (1.5%)</title>
<rect class="box" x="1552.48" y="182.00" width="23.52" height="20" rx="3" ry="3" fill="hsl(14,85%,73%)"/>
</g>
<g><title>runtime.usleep&#10;10.0ms (1.5%)</title>
<rect class="box" x="1552.48" y="160.00" width="23.52" height="20" rx="3" ry="3" fill="hsl(18,76%,69%)"/>
</g>
<text class="subtitle" x="24" y="400">Generated from go tool pprof flamegraph data</text>
</svg>