<svg xmlns="http://www.w3.org/2000/svg" width="760" height="440" font-family="system-ui,Segoe UI,sans-serif" font-size="13">
<rect width="100%" height="100%" fill="#fafafa"/>
<text x="72" y="34" font-size="17" font-weight="600">LSH vs наивный перебор: FindDuplicates (ms/op)</text>
<text x="72" y="418" fill="#666" font-size="11">Данные: go test ./hashtable ./perfecthash ./lsh -run=^$ -bench=. -benchmem -benchtime=2s</text>
<rect x="99.1" y="367.3" width="46.1" height="1.0" fill="#2563eb" rx="3"/>
<rect x="261.8" y="349.2" width="46.1" height="18.8" fill="#2563eb" rx="3"/>
<rect x="424.4" y="113.8" width="46.1" height="254.2" fill="#2563eb" rx="3"/>
<rect x="153.3" y="366.5" width="46.1" height="1.5" fill="#059669" rx="3"/>
<rect x="316.0" y="333.1" width="46.1" height="34.9" fill="#059669" rx="3"/>
<rect x="478.7" y="52.0" width="46.1" height="316.0" fill="#059669" rx="3"/>
<text x="153" y="396" text-anchor="middle" fill="#222" font-size="13">Small</text>
<text x="316" y="396" text-anchor="middle" fill="#222" font-size="13">Medium</text>
<text x="479" y="396" text-anchor="middle" fill="#222" font-size="13">Large</text>
<text transform="translate(22,210.0) rotate(-90)" text-anchor="middle" fill="#333">ms/op</text>
<rect x="570" y="60" width="14" height="14" fill="#2563eb" rx="2"/>
<text x="592" y="72" fill="#222">LSH</text>
<rect x="570" y="82" width="14" height="14" fill="#059669" rx="2"/>
<text x="592" y="94" fill="#222">Naive</text>
</svg>